<mxfile host="app.diagrams.net" modified="2024-01-31T16:19:02.188Z" agent="Mozilla/5.0 (Windows NT 10.0; Win64; x64) AppleWebKit/537.36 (KHTML, like Gecko) Chrome/121.0.0.0 Safari/537.36" version="23.0.2" etag="ih0LfO8lxeP3ErqI5yTe" type="github">
  <diagram name="PÃ¡gina-1" id="C5uxkfaVB08dNz2s6uzc">
    <mxGraphModel>
      <root>
        <mxCell id="0" />
        <mxCell id="1" parent="0" />
      </root>
    </mxGraphModel>
  </diagram>
</mxfile>
